<?xml version="1.0" encoding="UTF-8" ?>
<!DOCTYPE svg PUBLIC "-//W3C//DTD SVG 1.1//EN" "http://www.w3.org/Graphics/SVG/1.1/DTD/svg11.dtd">
<svg width="246pt" height="213pt" viewBox="0 0 246 213" version="1.1" xmlns="http://www.w3.org/2000/svg">
<path fill="#ffffff" d=" M 0.00 0.00 L 246.00 0.00 L 246.00 213.00 L 0.00 213.00 L 0.00 175.98 C 0.09 182.80 0.28 196.42 0.38 203.23 C 1.02 208.29 5.75 212.45 10.87 212.22 C 31.92 212.21 52.97 212.29 74.02 212.18 C 94.09 211.84 111.88 194.06 112.31 174.00 C 112.42 140.67 112.33 107.34 112.36 74.02 C 112.41 66.50 110.53 58.93 106.50 52.55 C 99.67 41.49 86.99 34.46 74.04 34.11 C 65.11 33.95 56.18 34.25 47.26 33.96 C 47.29 26.61 47.45 19.26 47.19 11.92 C 46.80 6.90 41.99 3.85 37.60 2.54 C 29.72 0.26 21.30 0.33 13.24 1.53 C 7.85 2.50 1.55 5.15 0.42 11.19 C 0.32 17.09 0.11 28.87 0.00 34.77 L 0.00 0.00 Z" />
<path fill="#000000" d=" M 0.42 11.19 C 1.55 5.15 7.85 2.50 13.24 1.53 C 21.30 0.33 29.72 0.26 37.60 2.54 C 41.99 3.85 46.80 6.90 47.19 11.92 C 47.45 19.26 47.29 26.61 47.26 33.96 C 56.18 34.25 65.11 33.95 74.04 34.11 C 86.99 34.46 99.67 41.49 106.50 52.55 C 110.53 58.93 112.41 66.50 112.36 74.02 C 112.33 107.34 112.42 140.67 112.31 174.00 C 111.88 194.06 94.09 211.84 74.02 212.18 C 52.97 212.29 31.92 212.21 10.87 212.22 C 5.75 212.45 1.02 208.29 0.38 203.23 C 0.28 196.42 0.09 182.80 0.00 175.98 L 0.00 34.77 C 0.11 28.87 0.32 17.09 0.42 11.19 Z" />
<path fill="#000000" d=" M 204.92 3.86 C 212.10 0.43 220.31 0.65 228.07 0.99 C 233.47 1.43 239.47 2.56 243.25 6.78 C 245.11 8.71 245.29 11.48 245.38 14.00 C 245.32 76.01 245.32 138.01 245.36 200.01 C 245.36 203.34 244.99 206.99 242.27 209.28 C 239.39 212.46 234.87 212.34 230.94 212.40 C 213.96 212.28 196.97 212.28 179.99 212.37 C 173.23 212.32 166.28 212.39 159.89 209.88 C 144.68 204.49 133.52 189.24 133.42 173.03 C 133.40 139.99 133.41 106.96 133.41 73.93 C 133.37 66.14 135.45 58.30 139.77 51.78 C 146.95 40.80 159.93 34.03 173.01 34.08 C 181.49 34.06 189.98 34.09 198.47 34.07 C 198.45 27.03 198.43 20.00 198.47 12.97 C 198.41 8.90 201.36 5.47 204.92 3.86 Z" />
<path fill="#ffffff" d=" M 14.51 15.64 C 20.66 14.46 27.07 14.59 33.21 15.87 C 33.17 26.61 33.21 37.36 33.18 48.10 C 46.13 48.14 59.07 48.11 72.01 48.12 C 80.46 48.07 89.01 52.09 93.88 59.08 C 96.94 63.41 98.33 68.77 98.23 74.04 C 98.23 107.03 98.25 140.02 98.22 173.01 C 98.25 185.95 86.98 197.55 74.10 198.09 C 54.24 198.20 34.38 198.11 14.52 198.14 C 14.50 137.31 14.52 76.48 14.51 15.64 Z" />
<path fill="#ffffff" d=" M 212.61 15.86 C 218.72 14.59 225.12 14.46 231.25 15.65 C 231.30 76.48 231.28 137.31 231.27 198.14 C 211.49 198.11 191.71 198.18 171.93 198.11 C 158.94 197.70 147.48 186.01 147.58 172.97 C 147.53 139.99 147.56 107.00 147.57 74.02 C 147.41 67.75 149.49 61.37 153.77 56.73 C 158.60 51.43 165.70 48.32 172.85 48.14 C 186.10 48.03 199.35 48.25 212.59 48.03 C 212.62 37.30 212.59 26.58 212.61 15.86 Z" />
<path fill="#000000" d=" M 32.96 66.90 C 42.31 66.90 51.66 66.87 61.02 66.91 C 65.84 66.86 70.91 68.02 74.59 71.31 C 77.90 74.21 79.56 78.67 79.56 83.02 C 79.56 109.70 79.55 136.38 79.56 163.06 C 79.56 167.46 78.77 172.28 75.49 175.49 C 72.20 178.70 67.38 179.40 62.98 179.44 C 52.97 179.44 42.96 179.44 32.95 179.43 C 32.95 141.92 32.94 104.41 32.96 66.90 Z" />
<path fill="#000000" d=" M 171.26 71.26 C 174.72 68.18 179.47 66.95 184.02 66.93 C 193.63 66.84 203.25 66.91 212.87 66.90 C 212.85 104.41 212.90 141.92 212.84 179.43 C 202.89 179.45 192.93 179.43 182.98 179.44 C 178.56 179.42 173.73 178.76 170.40 175.59 C 167.05 172.39 166.19 167.52 166.23 163.08 C 166.24 136.36 166.23 109.64 166.24 82.92 C 166.21 78.57 167.94 74.14 171.26 71.26 Z" />
<path fill="#ffffff" d=" M 46.97 80.94 C 53.06 81.41 59.52 79.88 65.36 81.88 C 65.45 109.67 65.43 137.46 65.37 165.24 C 59.24 165.35 53.10 165.28 46.97 165.29 C 46.96 137.17 46.95 109.06 46.97 80.94 Z" />
<path fill="#ffffff" d=" M 180.38 83.02 C 180.14 81.16 182.59 81.05 183.87 80.96 C 188.78 81.05 193.80 80.65 198.66 81.14 C 198.95 109.16 198.70 137.24 198.78 165.28 C 192.67 165.28 186.55 165.33 180.43 165.26 C 180.28 137.85 180.38 110.43 180.38 83.02 Z" />
</svg>
