<?xml version="1.0" encoding="UTF-8" ?>
<!DOCTYPE svg PUBLIC "-//W3C//DTD SVG 1.1//EN" "http://www.w3.org/Graphics/SVG/1.1/DTD/svg11.dtd">
<svg width="671pt" height="72pt" viewBox="0 0 671 72" version="1.1" xmlns="http://www.w3.org/2000/svg">
<path fill="#ffffff" d=" M 0.00 0.00 L 671.00 0.00 L 671.00 16.63 C 669.07 12.97 665.20 10.42 660.97 10.76 C 655.33 11.06 648.37 9.29 644.08 14.02 C 640.13 18.03 641.37 24.04 641.27 29.10 C 641.18 31.87 642.60 34.57 645.00 35.99 C 649.82 38.96 655.10 41.13 659.81 44.28 C 662.41 45.65 661.16 48.97 661.28 51.28 C 658.19 51.61 655.07 51.62 651.99 51.25 C 651.81 49.82 651.64 48.40 651.48 46.97 C 648.10 46.87 644.71 46.87 641.34 47.07 C 641.09 51.33 641.27 56.23 644.81 59.21 C 648.87 63.14 654.91 61.58 659.99 61.89 C 664.55 62.37 668.97 59.83 671.00 55.75 L 671.00 72.00 L 467.52 72.00 C 467.85 68.63 467.75 65.24 467.74 61.86 C 472.20 61.67 476.80 62.43 481.16 61.26 C 485.01 59.96 487.96 56.16 487.89 52.03 C 487.95 41.68 487.93 31.32 487.91 20.97 C 488.04 15.64 483.32 10.80 477.98 10.81 C 471.13 10.72 464.26 10.64 457.42 10.93 C 457.47 31.29 457.20 51.65 457.55 72.00 L 0.00 72.00 L 0.00 61.65 C 6.66 62.06 13.33 61.82 19.99 61.86 C 25.45 62.14 30.52 57.47 30.61 51.99 C 30.72 41.66 30.66 31.32 30.64 20.98 C 30.79 16.12 26.93 11.53 22.08 10.97 C 18.21 10.54 14.31 10.82 10.42 10.77 C 10.24 7.62 11.01 4.22 9.92 1.24 C 6.75 -0.05 3.11 0.10 0.00 1.49 L 0.00 0.00 Z" />
<path fill="#000000" d=" M 0.00 1.49 C 3.11 0.10 6.75 -0.05 9.92 1.24 C 11.01 4.22 10.24 7.62 10.42 10.77 C 14.31 10.82 18.21 10.54 22.08 10.97 C 26.93 11.53 30.79 16.12 30.64 20.98 C 30.66 31.32 30.72 41.66 30.61 51.99 C 30.52 57.47 25.45 62.14 19.99 61.86 C 13.33 61.82 6.66 62.06 0.00 61.65 L 0.00 1.49 Z" />
<path fill="#000000" d=" M 340.22 1.22 C 343.36 0.20 346.69 0.70 349.89 1.13 C 350.11 21.35 350.08 41.58 349.91 61.81 C 343.26 61.92 336.61 61.87 329.96 61.86 C 324.58 62.05 319.62 57.37 319.56 51.97 C 319.47 41.65 319.52 31.33 319.54 21.01 C 319.35 16.17 323.19 11.63 327.98 10.97 C 331.89 10.53 335.84 10.84 339.78 10.76 C 339.98 7.61 339.23 4.25 340.22 1.22 Z" />
<path fill="#000000" d=" M 604.38 1.06 C 607.71 1.05 611.04 1.05 614.37 1.06 C 614.61 4.33 614.57 7.60 614.54 10.87 C 617.96 10.86 621.40 10.83 624.83 10.98 C 624.92 14.33 624.92 17.67 624.83 21.02 C 621.40 21.16 617.97 21.13 614.55 21.12 C 614.67 30.75 614.30 40.41 614.73 50.03 C 617.01 53.13 621.78 50.28 624.56 52.17 C 624.74 55.27 624.80 58.40 624.49 61.49 C 621.44 62.34 618.09 61.71 614.93 61.86 C 609.48 62.21 604.20 57.60 604.24 52.07 C 604.15 41.75 604.23 31.43 604.21 21.12 C 600.86 21.14 597.52 21.17 594.18 21.00 C 594.08 17.66 594.09 14.32 594.18 10.98 C 597.52 10.83 600.86 10.86 604.21 10.88 C 604.18 7.60 604.14 4.33 604.38 1.06 Z" />
<path fill="#000000" d=" M 48.12 10.93 C 55.10 10.86 62.07 10.80 69.04 10.94 C 73.89 11.05 78.10 15.27 78.47 20.06 C 78.60 23.53 78.73 27.02 78.38 30.48 C 75.21 31.42 71.62 30.70 68.29 30.76 C 68.00 27.95 68.73 24.91 67.73 22.24 C 65.08 20.27 61.44 21.40 58.37 21.14 C 58.13 34.70 58.55 48.27 58.16 61.83 C 54.82 61.88 51.48 61.89 48.15 61.80 C 47.97 44.85 48.01 27.89 48.12 10.93 Z" />
<path fill="#000000" d=" M 100.86 10.85 C 105.12 10.91 109.53 10.19 113.67 11.46 C 117.89 13.04 120.61 17.50 120.26 21.97 C 120.15 35.26 120.46 48.55 120.10 61.83 C 113.38 61.88 106.65 61.89 99.93 61.85 C 94.64 61.92 89.77 57.26 89.78 51.93 C 89.70 47.28 89.69 42.62 89.79 37.97 C 89.72 32.99 94.06 28.69 98.93 28.30 C 102.62 28.07 106.33 28.25 110.03 28.21 C 109.63 25.98 111.00 22.66 108.73 21.23 C 106.13 20.82 103.49 21.04 100.87 20.94 C 100.73 17.58 100.73 14.21 100.86 10.85 Z" />
<path fill="#000000" d=" M 135.79 10.84 C 145.90 10.72 156.02 10.70 166.13 10.85 C 166.00 14.46 166.81 18.29 165.71 21.77 C 160.14 31.74 154.44 41.64 148.78 51.55 C 154.57 51.58 160.36 51.43 166.14 51.66 C 166.25 55.04 166.27 58.43 166.08 61.81 C 156.00 61.91 145.93 61.88 135.85 61.83 C 135.99 57.64 134.56 52.89 137.09 49.19 C 142.80 39.82 148.40 30.39 154.07 21.00 C 147.99 20.99 141.90 21.05 135.82 20.95 C 135.63 17.58 135.64 14.21 135.79 10.84 Z" />
<path fill="#000000" d=" M 181.68 21.00 C 181.60 15.55 186.54 10.68 192.00 10.89 C 198.70 10.85 205.39 10.84 212.09 10.93 C 212.21 21.92 212.21 32.92 212.09 43.91 C 205.36 44.07 198.64 43.95 191.92 43.99 C 192.25 46.41 190.75 50.74 194.16 51.37 C 200.13 51.85 206.13 51.29 212.11 51.67 C 212.19 55.05 212.21 58.43 212.04 61.81 C 205.36 61.91 198.68 61.88 191.99 61.85 C 186.64 62.03 181.57 57.43 181.69 51.98 C 181.61 41.65 181.63 31.32 181.68 21.00 Z" />
<path fill="#000000" d=" M 227.73 10.92 C 234.48 10.86 241.22 10.83 247.97 10.90 C 253.39 10.69 258.29 15.56 258.09 20.99 C 258.05 34.60 258.31 48.23 257.94 61.83 C 254.64 61.88 251.33 61.88 248.03 61.82 C 247.62 49.22 248.03 36.60 247.82 23.99 C 248.03 22.46 246.58 21.37 245.20 21.25 C 242.77 21.00 240.33 21.13 237.90 21.12 C 237.83 34.68 238.05 48.24 237.79 61.80 C 234.45 61.89 231.12 61.88 227.78 61.84 C 227.45 44.87 227.56 27.88 227.73 10.92 Z" />
<path fill="#000000" d=" M 367.52 11.39 C 371.04 10.19 375.24 11.19 379.01 10.88 C 384.38 11.20 390.93 9.48 395.07 13.93 C 399.48 18.41 397.58 25.20 397.83 30.81 C 394.49 30.91 391.14 30.90 387.80 30.85 C 387.35 27.97 388.28 24.76 387.01 22.09 C 384.29 20.38 380.84 21.37 377.81 21.12 C 377.63 34.66 377.90 48.20 377.67 61.74 C 374.33 61.73 370.84 62.33 367.60 61.52 C 367.22 44.84 367.38 28.09 367.52 11.39 Z" />
<path fill="#000000" d=" M 419.16 11.11 C 423.40 10.44 427.73 10.81 432.01 10.80 C 437.31 10.80 442.06 15.64 441.93 20.94 C 441.94 31.33 441.98 41.72 441.92 52.11 C 441.92 56.92 437.87 61.25 433.12 61.76 C 429.06 61.97 424.97 61.91 420.91 61.81 C 415.85 61.61 411.54 57.06 411.47 52.03 C 411.40 41.67 411.42 31.30 411.46 20.94 C 411.48 16.44 414.81 12.22 419.16 11.11 Z" />
<path fill="#000000" d=" M 457.42 10.93 C 464.26 10.64 471.13 10.72 477.98 10.81 C 483.32 10.80 488.04 15.64 487.91 20.97 C 487.93 31.32 487.95 41.68 487.89 52.03 C 487.96 56.16 485.01 59.96 481.16 61.26 C 476.80 62.43 472.20 61.67 467.74 61.86 C 467.75 65.24 467.85 68.63 467.52 72.00 L 457.55 72.00 C 457.20 51.65 457.47 31.29 457.42 10.93 Z" />
<path fill="#000000" d=" M 509.42 11.70 C 513.70 10.04 518.44 10.98 522.92 10.76 C 528.58 10.31 533.96 15.23 533.88 20.92 C 533.92 30.96 533.88 41.00 533.90 51.04 C 534.16 55.16 531.72 59.29 527.92 60.95 C 525.15 62.27 522.00 61.78 519.05 61.88 C 515.72 61.73 512.15 62.40 509.07 60.81 C 505.39 59.09 503.18 55.03 503.36 51.03 C 503.37 41.00 503.32 30.97 503.38 20.95 C 503.39 17.04 505.90 13.35 509.42 11.70 Z" />
<path fill="#000000" d=" M 549.41 11.38 C 552.57 10.24 556.30 11.02 559.67 11.14 C 559.78 24.07 559.45 37.01 559.83 49.93 C 561.79 52.46 566.10 51.77 568.78 50.81 C 568.94 50.49 569.26 49.84 569.42 49.52 C 569.80 36.66 569.28 23.77 569.68 10.91 C 573.05 10.85 576.42 10.84 579.79 10.96 C 579.94 24.68 579.87 38.40 579.83 52.12 C 579.78 57.67 574.49 62.32 568.99 61.87 C 564.61 61.63 560.03 62.53 555.80 61.15 C 551.73 59.64 549.11 55.34 549.32 51.05 C 549.38 37.83 549.19 24.60 549.41 11.38 Z" />
<path fill="#000000" d=" M 644.08 14.02 C 648.37 9.29 655.33 11.06 660.97 10.76 C 665.20 10.42 669.07 12.97 671.00 16.63 L 671.00 25.76 C 668.01 25.76 665.03 25.77 662.05 25.73 C 661.61 24.32 661.80 22.56 660.76 21.42 C 658.28 20.65 655.55 20.90 653.01 21.20 C 651.21 21.56 651.63 23.62 651.57 24.95 C 651.40 27.97 654.93 28.78 656.93 30.20 C 661.59 33.22 667.53 34.62 671.00 39.21 L 671.00 55.75 C 668.97 59.83 664.55 62.37 659.99 61.89 C 654.91 61.58 648.87 63.14 644.81 59.21 C 641.27 56.23 641.09 51.33 641.34 47.07 C 644.71 46.87 648.10 46.87 651.48 46.97 C 651.64 48.40 651.81 49.82 651.99 51.25 C 655.07 51.62 658.19 51.61 661.28 51.28 C 661.16 48.97 662.41 45.65 659.81 44.28 C 655.10 41.13 649.82 38.96 645.00 35.99 C 642.60 34.57 641.18 31.87 641.27 29.10 C 641.37 24.04 640.13 18.03 644.08 14.02 Z" />
<path fill="#ffffff" d=" M 10.32 21.01 C 13.47 21.30 17.19 20.13 19.91 22.16 C 20.83 27.01 20.06 32.08 20.31 37.02 C 20.12 41.65 20.73 46.36 19.96 50.94 C 16.94 52.16 13.51 51.31 10.32 51.54 C 10.32 41.37 10.33 31.19 10.32 21.01 Z" />
<path fill="#ffffff" d=" M 331.39 21.41 C 334.15 20.68 337.06 21.09 339.88 21.01 C 339.88 31.19 339.89 41.37 339.88 51.54 C 336.69 51.25 333.13 52.29 330.18 50.85 C 329.38 42.96 330.09 34.94 329.82 26.99 C 330.03 25.14 329.11 22.27 331.39 21.41 Z" />
<path fill="#ffffff" d=" M 423.16 21.19 C 425.75 21.24 429.89 19.87 431.47 22.39 C 431.92 31.22 431.62 40.11 431.62 48.97 C 431.75 50.98 429.54 51.61 427.92 51.55 C 425.91 51.52 423.28 51.95 421.95 50.05 C 421.54 41.73 421.89 33.38 421.77 25.05 C 421.91 23.66 421.36 21.66 423.16 21.19 Z" />
<path fill="#ffffff" d=" M 467.66 21.01 C 470.46 21.03 473.27 20.85 476.06 21.14 C 477.97 21.42 477.50 23.62 477.64 24.99 C 477.62 32.66 477.65 40.33 477.63 48.00 C 477.62 49.15 477.55 50.81 476.17 51.18 C 473.39 51.86 470.48 51.46 467.65 51.54 C 467.67 41.36 467.65 31.19 467.66 21.01 Z" />
<path fill="#ffffff" d=" M 514.53 21.51 C 517.20 20.72 520.63 20.49 523.22 21.76 C 524.10 29.77 523.32 37.94 523.61 46.01 C 523.42 47.73 524.19 50.59 521.93 51.23 C 519.35 51.56 515.68 52.37 513.89 50.00 C 513.61 40.66 513.51 31.26 513.94 21.94 L 514.53 21.51 Z" />
<path fill="#ffffff" d=" M 651.57 24.95 C 651.63 23.62 651.21 21.56 653.01 21.20 C 655.55 20.90 658.28 20.65 660.76 21.42 C 661.80 22.56 661.61 24.32 662.05 25.73 C 665.03 25.77 668.01 25.76 671.00 25.76 L 671.00 39.21 C 667.53 34.62 661.59 33.22 656.93 30.20 C 654.93 28.78 651.40 27.97 651.57 24.95 Z" />
<path fill="#ffffff" d=" M 192.22 21.96 C 195.17 20.31 198.89 21.44 202.15 21.13 C 202.15 25.44 202.15 29.74 202.15 34.05 C 198.75 34.05 195.34 34.05 191.94 34.05 C 192.07 30.02 191.60 25.95 192.22 21.96 Z" />
<path fill="#ffffff" d=" M 100.18 40.22 C 102.36 37.24 106.88 39.03 110.08 38.55 C 110.07 42.88 110.09 47.21 110.06 51.55 C 106.99 51.46 103.88 51.82 100.85 51.26 C 99.11 48.00 100.17 43.82 100.18 40.22 Z" />
</svg>
